<svg width="40" height="40" viewBox="0 0 40 40" fill="none" xmlns="http://www.w3.org/2000/svg">
<rect width="40" height="40" rx="4" fill="black"/>
<path d="M9.72328 16.2608H14.0898V30.3132H9.72328V16.2608ZM11.9082 9.27563C13.3046 9.27563 14.4381 10.4092 14.4381 11.8088C14.4381 13.2085 13.3046 14.342 11.9082 14.342C10.5085 14.342 9.37501 13.2085 9.37501 11.8088C9.37172 10.4124 10.5052 9.27563 11.9082 9.27563Z" fill="white"/>
<path d="M16.83 16.2607H21.0191V18.1795H21.0782C21.6598 17.0756 23.0824 15.9092 25.2115 15.9092C29.6339 15.9092 30.452 18.8202 30.452 22.6019V30.3131H26.0854V23.4824C26.0854 21.8495 26.0559 19.7566 23.8151 19.7566C21.5415 19.7566 21.1932 21.5308 21.1932 23.3642V30.3164H16.83V16.2607Z" fill="white"/>
</svg>
