<svg width="40" height="40" viewBox="0 0 40 40" fill="none" xmlns="http://www.w3.org/2000/svg">
<rect width="40" height="40" rx="4" fill="black"/>
<path fill-rule="evenodd" clip-rule="evenodd" d="M18.8151 13.1016C19.3578 13.8406 19.6298 14.7234 19.6298 15.7532C19.6298 16.8128 19.3576 17.6676 18.8082 18.3122C18.5005 18.6727 18.0492 19.0031 17.4524 19.3008C18.3585 19.6248 19.0413 20.1355 19.5063 20.8349C19.966 21.5325 20.1976 22.3821 20.1976 23.3808C20.1976 24.4108 19.9339 25.3348 19.4047 26.1515C19.0701 26.6921 18.6507 27.1483 18.1472 27.5186C17.5809 27.9434 16.9132 28.2327 16.1407 28.3914C15.3683 28.5484 14.5332 28.6245 13.6305 28.6245H5.625V11.25H14.2104C16.3775 11.2814 17.9106 11.8979 18.8151 13.1016ZM9.1664 14.267V18.1007H13.487C14.256 18.1007 14.8831 17.9569 15.3667 17.6692C15.8467 17.3815 16.0886 16.8723 16.0886 16.1451C16.0886 15.3335 15.7708 14.7994 15.1352 14.5382C14.5842 14.3581 13.8843 14.267 13.0339 14.267H9.1664ZM9.1664 20.9754V25.6091H13.4802C14.2511 25.6091 14.8528 25.5067 15.2805 25.3032C16.0596 24.9229 16.4484 24.2021 16.4484 23.1343C16.4484 22.2283 16.0731 21.6084 15.3175 21.2695C14.895 21.0812 14.3016 20.9819 13.5409 20.9752H9.1664V20.9754ZM30.9384 16.0376C31.8564 16.4377 32.6119 17.0725 33.2069 17.9386C33.7496 18.7023 34.0977 19.5885 34.2568 20.5951C34.3497 21.1836 34.3868 22.0366 34.3718 23.1459H24.7989C24.8564 24.4337 25.3095 25.3379 26.1749 25.8554C26.6989 26.1778 27.3294 26.3396 28.0699 26.3396C28.8491 26.3396 29.4865 26.1428 29.975 25.7512C30.2439 25.5379 30.4804 25.2437 30.6832 24.8668H34.1907C34.0977 25.6271 33.6719 26.4024 32.9179 27.1895C31.7414 28.4377 30.0932 29.0625 27.9751 29.0625C26.2256 29.0625 24.6824 28.5368 23.3486 27.4821C22.0082 26.4291 21.3422 24.7131 21.3422 22.3392C21.3422 20.1124 21.9457 18.4046 23.151 17.2161C24.3596 16.0309 25.9231 15.4339 27.8484 15.4339C28.9928 15.4342 30.0222 15.6357 30.9384 16.0376ZM25.7996 18.9403C25.3144 19.4297 25.0085 20.0926 24.8834 20.9291H30.8047C30.7423 20.0365 30.4346 19.3618 29.8901 18.8974C29.3392 18.4362 28.6613 18.2064 27.8498 18.2064C26.9711 18.2064 26.2847 18.4511 25.7996 18.9403ZM23.996 14.2222H31.6095V12.06H23.996V14.2222Z" fill="white"/>
</svg>
