<svg width="40" height="40" viewBox="0 0 40 40" fill="none" xmlns="http://www.w3.org/2000/svg">
<rect width="40" height="40" rx="4" fill="black"/>
<path fill-rule="evenodd" clip-rule="evenodd" d="M20 5.625C12.0642 5.625 5.625 12.0642 5.625 20C5.625 27.9358 12.0642 34.375 20 34.375C27.9203 34.375 34.375 27.9358 34.375 20C34.375 12.0642 27.9203 5.625 20 5.625ZM29.495 12.2513C31.2099 14.3406 32.2392 17.0066 32.2702 19.8907C31.8648 19.8128 27.8111 18.9866 23.7263 19.5012C23.6328 19.2985 23.5547 19.08 23.4612 18.8618C23.2117 18.2696 22.931 17.6615 22.6504 17.0845C27.172 15.2447 29.2299 12.5943 29.495 12.2513V12.2513ZM20 7.74531C23.1183 7.74531 25.9714 8.91485 28.1386 10.8325C27.9203 11.1442 26.0648 13.6232 21.6994 15.2603C19.6881 11.5653 17.4588 8.54054 17.1158 8.07279C18.0355 7.85458 19.0021 7.74531 20 7.74531V7.74531ZM14.777 8.89907C15.1045 9.33577 17.2872 12.3761 19.3295 15.9931C13.5922 17.5209 8.52499 17.4898 7.97936 17.4898C8.77425 13.6856 11.3468 10.5205 14.777 8.89907V8.89907ZM7.71426 20.0155V19.6415C8.24439 19.657 14.2002 19.7349 20.3275 17.8952C20.686 18.5812 21.0134 19.2827 21.3251 19.9845C21.1693 20.0313 20.9979 20.0779 20.8418 20.1248C14.5119 22.1672 11.1442 27.7487 10.8636 28.2164C8.91485 26.0493 7.71426 23.1651 7.71426 20.0155V20.0155ZM20 32.2857C17.1624 32.2857 14.5432 31.3192 12.4695 29.6977C12.6877 29.2454 15.1824 24.4436 22.1048 22.0269C22.1358 22.0114 22.1516 22.0114 22.1827 21.9955C23.9134 26.4702 24.6149 30.2278 24.8021 31.3036C23.3209 31.9428 21.6994 32.2857 20 32.2857ZM26.8445 30.1809C26.7198 29.4326 26.0651 25.8466 24.4591 21.4344C28.3102 20.8263 31.6777 21.8242 32.0986 21.9645C31.5687 25.3788 29.6042 28.3257 26.8445 30.1809Z" fill="white"/>
</svg>
