<svg width="147" height="17" viewBox="0 0 147 17" fill="none" xmlns="http://www.w3.org/2000/svg">
<path d="M0.104 13H7.72V11.032H2.216V1.592H0.104V13ZM15.1836 11.24L15.3756 13H17.1356V3.8H15.0236V8.584C15.0236 10.216 14.3196 11.352 12.9276 11.352C11.4876 11.352 11.0556 10.36 11.0556 8.92V3.8H8.95963V9.496C8.95963 11.784 9.99963 13.192 12.2076 13.192C13.7276 13.192 14.7196 12.44 15.1836 11.24ZM23.2473 13.24C25.7913 13.24 27.5673 12.04 27.7753 9.32V9.272H25.5833V9.288C25.3753 10.696 24.6073 11.4 23.2633 11.4C21.7273 11.4 20.7993 10.376 20.7993 8.552V8.344C20.7993 6.392 21.8073 5.368 23.2793 5.368C24.5593 5.368 25.3753 6.008 25.5673 7.448V7.496H27.7593V7.464C27.5513 4.776 25.8073 3.576 23.2633 3.576C21.4873 3.576 20.0473 4.328 19.2313 5.736C18.8313 6.44 18.6233 7.32 18.6233 8.344V8.584C18.6233 11.592 20.3033 13.24 23.2473 13.24ZM35.703 11.16L35.927 13H37.623V6.792C37.623 5.464 37.143 4.488 35.943 3.976C35.335 3.704 34.567 3.576 33.559 3.576C30.919 3.576 29.383 4.952 29.239 7.048H31.399C31.463 5.864 32.151 5.208 33.671 5.208C35.111 5.208 35.607 5.688 35.607 6.456C35.607 7.208 34.951 7.432 33.303 7.64C32.151 7.816 31.463 7.944 30.919 8.136C30.663 8.216 30.391 8.344 30.135 8.52C29.383 8.984 28.935 9.752 28.935 10.776C28.935 12.28 29.943 13.24 31.943 13.24C33.847 13.24 35.079 12.36 35.703 11.16ZM32.663 11.624C31.703 11.624 31.223 11.24 31.223 10.472C31.223 10.072 31.399 9.752 31.767 9.512C32.199 9.24 32.647 9.112 33.767 8.936C34.599 8.808 35.239 8.616 35.623 8.344V8.84C35.623 9.72 35.127 10.648 34.231 11.208C33.783 11.48 33.271 11.624 32.663 11.624ZM43.3145 13.24C46.0345 13.24 47.3145 11.944 47.3145 10.168C47.3145 9.144 46.8825 8.52 46.1945 8.152C45.5065 7.784 44.6585 7.64 43.8265 7.512C42.9465 7.384 42.1305 7.272 41.6665 7C41.4265 6.856 41.3145 6.632 41.3145 6.36C41.3145 5.72 41.7145 5.256 43.0265 5.256C44.2425 5.256 44.8505 5.656 44.9945 6.552H47.1385C46.8825 4.712 45.6825 3.576 43.0425 3.576C40.5145 3.576 39.2505 4.792 39.2505 6.488C39.2505 7.512 39.6825 8.136 40.3705 8.504C41.0585 8.872 41.9065 9.016 42.7385 9.144C43.6185 9.272 44.4185 9.384 44.8825 9.656C45.1225 9.8 45.2345 10.024 45.2345 10.296C45.2345 11.032 44.7065 11.48 43.3625 11.48C42.0505 11.48 41.2985 11.048 41.1065 9.96H38.8345C39.1065 12.104 40.4825 13.24 43.3145 13.24ZM62.0791 9.784L62.3671 13H66.9591V6.6H59.3591V8.6H61.6151C61.3591 9.112 60.8471 9.384 59.9671 9.384C58.5911 9.384 58.2071 8.712 58.2071 7.496C58.2071 6.088 58.7671 5.448 59.9671 5.448C60.7831 5.448 61.1511 5.672 61.3911 6.072H66.9751C66.6391 2.648 64.1431 1.176 60.0631 1.176C55.5991 1.176 53.0071 3.368 53.0071 7.64C53.0071 11.432 54.6711 13.304 58.0311 13.304C59.7271 13.304 60.8151 12.888 61.4391 11.864C61.7591 11.352 61.9671 10.664 62.0791 9.784ZM68.0448 13H73.3088V10.184C73.3088 9.288 73.4528 8.808 73.9648 8.6C74.2208 8.488 74.5888 8.44 75.0848 8.44H77.1008V3.448H76.2368C74.1568 3.448 73.1008 4.248 72.8608 6.472L72.1888 3.64H68.0448V13ZM90.4794 9.832H85.2474C85.1034 10.04 84.8794 10.168 84.1914 10.168C83.1994 10.168 82.7194 9.848 82.5434 9.224H90.5274V8.392C90.5274 7.016 90.1114 5.816 89.1194 4.888C88.1274 3.96 86.5754 3.432 84.2874 3.432C81.2154 3.432 79.2794 4.344 78.3354 5.912C77.8714 6.712 77.6314 7.608 77.6314 8.632C77.6314 9.912 77.9834 11.048 78.9274 11.928C79.8714 12.792 81.4554 13.304 83.9354 13.304C87.9674 13.304 89.9034 12.168 90.4794 9.832ZM84.1114 6.664C84.9754 6.664 85.4074 6.856 85.5834 7.432H82.6234C82.8314 6.936 83.2954 6.664 84.1114 6.664ZM96.3009 16.808H97.2769C101.949 16.808 103.949 15.72 103.949 13.176C103.949 11.848 103.357 11.016 101.949 10.584C101.245 10.376 100.301 10.264 99.1009 10.264H95.7569C94.5729 10.264 94.3809 10.248 94.3809 10.04C94.3809 9.848 94.6209 9.752 95.7409 9.752H97.6289C100.653 9.752 102.285 9.288 103.037 8.36C103.405 7.912 103.581 7.336 103.581 6.648C103.581 5.192 102.813 4.408 101.357 4.008C100.925 3.88 100.397 3.8 99.7569 3.736C101.277 3.736 102.237 3.704 102.797 3.464C103.373 3.224 103.565 2.744 103.565 1.848V1.48H98.4929V2.36C98.4929 3.288 98.3649 3.432 97.5649 3.432H96.8929C92.8129 3.432 91.0369 4.6 91.0369 6.632C91.0369 8.136 91.8369 8.888 93.8049 9.208C91.7729 9.464 90.9729 10.168 90.9729 11.368C90.9729 12.52 91.7889 13.224 94.1089 13.368C92.4769 13.416 91.5329 13.752 91.0849 14.216C90.8769 14.472 90.7649 14.728 90.7649 15C90.7649 15.576 91.0529 16.024 91.8689 16.344C92.6849 16.648 94.0769 16.808 96.3009 16.808ZM97.3729 7.16C96.0609 7.16 95.6929 7.064 95.6929 6.76C95.6929 6.424 96.0769 6.312 97.1969 6.296H97.3889C98.7649 6.296 99.1009 6.424 99.1009 6.76C99.1009 7.032 98.7009 7.16 97.3729 7.16ZM97.8049 14.232H97.3889C95.7569 14.232 95.2769 14.104 95.2769 13.8C95.2769 13.56 95.4689 13.4 96.7169 13.4H98.6529C99.5329 13.4 99.7569 13.512 99.7569 13.768V13.784C99.7569 13.928 99.5969 14.088 99.0369 14.168C98.7649 14.216 98.3489 14.232 97.8049 14.232ZM110.389 13.304C113.109 13.304 114.981 12.472 115.989 11.016C116.485 10.28 116.725 9.432 116.725 8.424C116.725 6.456 115.733 4.936 113.845 4.072C112.901 3.64 111.765 3.432 110.421 3.432C107.717 3.432 105.829 4.328 104.821 5.832C104.309 6.584 104.069 7.432 104.069 8.424C104.069 10.44 104.885 11.912 106.757 12.712C107.685 13.096 108.885 13.304 110.389 13.304ZM110.389 9.528C109.573 9.528 109.093 9.144 109.093 8.408C109.093 7.592 109.573 7.176 110.389 7.176C111.189 7.176 111.701 7.592 111.701 8.408C111.701 9.144 111.205 9.528 110.389 9.528ZM117.576 13H122.84V10.184C122.84 9.288 122.984 8.808 123.496 8.6C123.752 8.488 124.12 8.44 124.616 8.44H126.632V3.448H125.768C123.688 3.448 122.632 4.248 122.392 6.472L121.72 3.64H117.576V13ZM130.09 3.8C131.962 3.8 132.826 3.336 132.826 2.088C132.826 0.808 131.866 0.344 130.09 0.344C128.282 0.344 127.354 0.808 127.354 2.088C127.354 3.352 128.09 3.8 130.09 3.8ZM127.53 3.704V13H132.65V3.704C132.202 4.104 131.402 4.344 130.074 4.344C128.762 4.344 127.962 4.104 127.53 3.704ZM139.826 13.304C142.546 13.304 144.418 12.472 145.426 11.016C145.922 10.28 146.162 9.432 146.162 8.424C146.162 6.456 145.17 4.936 143.282 4.072C142.338 3.64 141.202 3.432 139.858 3.432C137.154 3.432 135.266 4.328 134.258 5.832C133.746 6.584 133.506 7.432 133.506 8.424C133.506 10.44 134.322 11.912 136.194 12.712C137.122 13.096 138.322 13.304 139.826 13.304ZM139.826 9.528C139.01 9.528 138.53 9.144 138.53 8.408C138.53 7.592 139.01 7.176 139.826 7.176C140.626 7.176 141.138 7.592 141.138 8.408C141.138 9.144 140.642 9.528 139.826 9.528Z" fill="black"/>
</svg>
