<svg width="23" height="13" viewBox="0 0 23 13" fill="none" xmlns="http://www.w3.org/2000/svg">
<path d="M0.104 12H7.72V10.032H2.216V0.591999H0.104V12ZM17.4854 8.784L17.7734 12H22.3654V5.6H14.7654V7.6H17.0214C16.7654 8.112 16.2534 8.384 15.3734 8.384C13.9974 8.384 13.6134 7.712 13.6134 6.496C13.6134 5.088 14.1734 4.448 15.3734 4.448C16.1894 4.448 16.5574 4.672 16.7974 5.072H22.3814C22.0454 1.648 19.5494 0.176 15.4694 0.176C11.0054 0.176 8.41338 2.368 8.41338 6.64C8.41338 10.432 10.0774 12.304 13.4374 12.304C15.1334 12.304 16.2214 11.888 16.8454 10.864C17.1654 10.352 17.3734 9.664 17.4854 8.784Z" fill="black"/>
</svg>
